:SAMPLES-PER-SECOND 30
:FULLY-SPECIFIED
:DEGREES
1465
root  10.1172 37.6735 14.5814 168.863 51.2081 168.956
RightUpLeg  -14.4995 -32.3138 -17.7395
RightLeg  47.7326 -16.5797 -18.8941
RightFoot  -13.6965 0.0944177 9.10583
RightToes  0.000481921 0.542163 -0.142578
Spine  31.7581 0.499909 9.71505
Spine1  5.49855 4.89971 -7.00427
HEad  -2.34875 -23.1413 5.45688
LeftShoulder1  6.49965 -12.8168 -33.7733
LeftArm  7.34844 -18.9695 -47.8081
LeftForeArm  -163.147 -63.8701 -162.535
LeftHand  -0.25398 0.0180481 5.50724
RightShoulder  4.71099 9.28288 31.0458
RightArm  -33.3075 8.8317 22.5415
RightForeArm  -158.219 49.9102 170.255
RightHand  0.337947 -2.10121 12.6911
LeftUpLeg  -25.6353 3.6959 -3.40497
LeftLeg  29.5069 -4.28216 -2.28025
LeftFoot  0.539576 0.429414 -4.15796
LeftToes  1.06245e-005 4.65869e-005 -8.65517e-006
1466
root  10.2918 37.9037 14.4072 169.223 52.7943 170.487
RightUpLeg  -11.9477 -33.7498 -17.6353
RightLeg  44.765 -15.2757 -15.929
RightFoot  -13.497 0.0699185 8.57158
RightToes  0.000481921 0.542163 -0.142578
Spine  30.634 0.77816 10.3004
Spine1  6.01892 5.11899 -6.09799
HEad  -1.08348 -22.4431 2.96408
LeftShoulder1  6.76111 -13.0963 -34.6731
LeftArm  7.68735 -19.6946 -48.6043
LeftForeArm  -160.793 -62.7674 -163.537
LeftHand  -0.25398 0.0180481 5.50724
RightShoulder  5.69921 10.1119 35.9253
RightArm  -29.2143 8.67441 25.6694
RightForeArm  -160.154 49.9406 169.993
RightHand  0.35635 -1.72992 11.8156
LeftUpLeg  -23.8619 3.18882 -1.81036
LeftLeg  28.9112 -2.87174 -1.38026
LeftFoot  0.256677 0.41001 -4.05297
LeftToes  1.06245e-005 4.65869e-005 -8.65517e-006
1467
root  10.4147 38.226 14.1936 169.344 55.1327 171.504
RightUpLeg  -9.52168 -34.6826 -17.6483
RightLeg  40.9864 -13.6705 -12.6876
RightFoot  -12.7829 0.0121841 7.83549
RightToes  0.000481921 0.542163 -0.142578
Spine  29.0093 0.812443 10.5401
Spine1  6.29294 5.14748 -6.24455
HEad  1.26801 -20.7322 1.94572
LeftShoulder1  6.82914 -13.3475 -34.4707
LeftArm  7.3429 -20.403 -48.7788
LeftForeArm  -158.967 -61.5352 -164.512
LeftHand  -0.25398 0.0180481 5.50724
RightShoulder  5.81217 10.57 35.3332
RightArm  -28.0759 10.9906 29.6883
RightForeArm  -164.377 54.7848 167.702
RightHand  0.154242 -3.03619 8.80061
LeftUpLeg  -21.6158 4.29283 -0.602695
LeftLeg  27.2564 -2.097 -0.83829
LeftFoot  0.381749 0.407128 -3.98842
LeftToes  1.06245e-005 4.65869e-005 -8.65517e-006
1468
root  10.5359 38.6227 13.978 169.062 58.4005 171.684
RightUpLeg  -7.68669 -34.3567 -17.3931
RightLeg  36.7175 -12.169 -9.84046
RightFoot  -11.6219 -0.0616461 7.04904
RightToes  0.000481921 0.542163 -0.142578
Spine  27.4682 0.945995 10.3769
Spine1  5.74821 5.34952 -7.41745
HEad  3.86656 -18.9684 2.49084
LeftShoulder1  6.68518 -13.2812 -33.7817
LeftArm  6.93438 -21.2586 -48.5524
LeftForeArm  -157.098 -60.5626 -165.26
LeftHand  -0.25398 0.0180481 5.50724
RightShoulder  5.5042 10.5539 33.2031
RightArm  -27.6046 14.9302 32.3638
RightForeArm  -169.12 60.4522 164.368
RightHand  0.0172366 -4.32452 6.15631
LeftUpLeg  -18.9315 6.99468 0.274086
LeftLeg  24.4653 -1.75099 -0.540005
LeftFoot  0.85886 0.425606 -4.03093
LeftToes  1.06245e-005 4.65869e-005 -8.65517e-006
1469
root  10.6495 39.0194 13.7603 168.868 61.6534 171.807
RightUpLeg  -6.04742 -33.3436 -16.8564
RightLeg  32.366 -11.0548 -7.70276
RightFoot  -10.1885 -0.134706 6.48319
RightToes  0.000481921 0.542163 -0.142578
Spine  26.0955 0.993863 10.342
Spine1  4.89765 5.48003 -8.65054
HEad  5.57103 -17.2684 3.17
LeftShoulder1  6.62662 -13.3119 -33.3645
LeftArm  6.22323 -21.9806 -48.1045
LeftForeArm  -156.446 -59.824 -165.743
LeftHand  -0.25398 0.0180481 5.50724
RightShoulder  5.07111 10.0941 31.3457
RightArm  -26.0749 19.5478 33.1054
RightForeArm  -172.479 64.4708 161.226
RightHand  0.0279528 -3.89381 4.65184
LeftUpLeg  -16.1717 9.72522 1.11705
LeftLeg  21.2791 -1.39488 -0.272734
LeftFoot  1.47345 0.449573 -4.08308
LeftToes  1.06245e-005 4.65869e-005 -8.65517e-006
1470
root  10.7382 39.3512 13.5531 168.636 64.5493 171.878
RightUpLeg  -4.62847 -31.7772 -16.2462
RightLeg  28.5052 -10.4751 -6.33521
RightFoot  -8.72046 -0.198355 6.07478
RightToes  0.000481921 0.542163 -0.142578
Spine  24.7124 0.905789 10.3157
Spine1  4.50182 5.38277 -9.38857
HEad  6.20748 -15.2077 3.10307
LeftShoulder1  6.73421 -13.6571 -33.1987
LeftArm  4.99697 -22.4932 -47.7603
LeftForeArm  -157.527 -59.3588 -165.928
LeftHand  -0.25398 0.0180481 5.50724
RightShoulder  4.68809 9.82811 29.189
RightArm  -24.4721 24.0898 33.5325
RightForeArm  -175.395 66.7772 158.858
RightHand  0.0342711 -3.31541 3.33863
LeftUpLeg  -13.6202 11.8183 1.86996
LeftLeg  18.3404 -0.79334 0.0333515
LeftFoot  2.06991 0.467028 -4.07908
LeftToes  1.06245e-005 4.65869e-005 -8.65517e-006
1471
root  10.81 39.5839 13.3766 167.429 67.479 170.908
RightUpLeg  -3.90043 -29.3749 -15.7932
RightLeg  25.774 -10.3119 -5.6022
RightFoot  -7.56796 -0.239161 5.6873
RightToes  0.000481921 0.542163 -0.142578
Spine  23.4866 0.908448 9.67592
Spine1  4.39986 5.18559 -9.60125
HEad  6.31805 -12.8938 2.78491
LeftShoulder1  6.84094 -13.9896 -33.0622
LeftArm  3.5855 -23.0378 -47.9211
LeftForeArm  -158.683 -59.2707 -165.892
LeftHand  -0.25398 0.0180481 5.50724
RightShoulder  4.30882 9.72136 26.5197
RightArm  -23.2121 28.2454 34.9392
RightForeArm  -179.55 68.0516 157.067
RightHand  -0.00830377 -3.18765 0.957287
LeftUpLeg  -11.3384 13.5864 2.37867
LeftLeg  15.979 0.246925 0.216147
LeftFoot  2.46739 0.480638 -4.09191
LeftToes  1.06245e-005 4.65869e-005 -8.65517e-006
1472
root  10.8595 39.691 13.2325 165.006 70.4224 168.655
RightUpLeg  -4.05174 -26.3987 -15.5407
RightLeg  24.6203 -10.3449 -5.35723
RightFoot  -7.05436 -0.256337 5.55631
RightToes  0.000481921 0.542163 -0.142578
Spine  22.7258 0.961111 8.33555
Spine1  3.9423 4.80558 -9.33616
HEad  6.21415 -10.6662 2.79963
LeftShoulder1  6.88873 -14.0863 -33.1184
LeftArm  2.21495 -23.7003 -48.4797
LeftForeArm  -158.461 -59.2846 -165.901
LeftHand  -0.25398 0.0180481 5.50724
RightShoulder  3.93029 9.34721 24.4405
RightArm  -21.166 32.1288 36.9804
RightForeArm  175.352 68.6793 155.743
RightHand  -0.086385 -2.14123 -2.44649
LeftUpLeg  -9.65064 14.7717 2.77311
LeftLeg  14.8243 2.02841 0.219903
LeftFoot  2.31603 0.500163 -4.29469
LeftToes  1.06245e-005 4.65869e-005 -8.65517e-006
1473
root  10.8541 39.6357 13.1183 162.42 72.9217 166.272
RightUpLeg  -5.00145 -23.4173 -15.258
RightLeg  25.2896 -10.52 -5.59824
RightFoot  -7.32324 -0.257356 5.92138
RightToes  0.000481921 0.542163 -0.142578
Spine  22.5228 0.733308 6.93535
Spine1  3.17263 4.06408 -8.71395
HEad  5.66746 -8.47538 2.93369
LeftShoulder1  6.96763 -14.1516 -33.4182
LeftArm  0.77735 -24.4651 -49.0509
LeftForeArm  -157.496 -58.9671 -166.148
LeftHand  -0.25398 0.0180481 5.50724
RightShoulder  3.68843 8.92698 23.4833
RightArm  -18.3349 35.7044 39.0263
RightForeArm  172.266 68.915 155.08
RightHand  -0.210038 -0.478324 -4.96387
LeftUpLeg  -9.33754 16.5312 2.86932
LeftLeg  15.8957 2.72343 0.64623
LeftFoot  1.22829 0.517746 -4.77423
LeftToes  1.06245e-005 4.65869e-005 -8.65517e-006
1474
root  10.7863 39.4122 13.0274 160.87 74.9553 165.216
RightUpLeg  -6.31618 -20.9369 -14.7731
RightLeg  27.4815 -10.5394 -6.12328
RightFoot  -8.20094 -0.231051 6.38498
RightToes  0.000481921 0.542163 -0.142578
Spine  22.7275 0.181258 6.13333
Spine1  2.8979 3.1454 -7.9184
HEad  4.36681 -6.30271 2.88626
LeftShoulder1  7.10327 -14.4123 -33.5991
LeftArm  -0.705414 -25.6042 -49.6228
LeftForeArm  -157.157 -58.3446 -166.509
LeftHand  -0.25398 0.0180481 5.50724
RightShoulder  3.59445 8.86741 22.8309
RightArm  -16.1123 38.4466 41.3145
RightForeArm  172.65 68.6231 155.482
RightHand  -0.274606 0.122691 -5.82477
LeftUpLeg  -10.2607 17.9749 3.18028
LeftLeg  19.3368 2.91126 1.52598
LeftFoot  -0.732777 0.490949 -5.23819
LeftToes  1.06245e-005 4.65869e-005 -8.65517e-006
1475
root  10.7012 39.0951 12.9428 160.211 76.9369 165.575
RightUpLeg  -7.26994 -19.4354 -14.2644
RightLeg  30.1499 -9.79742 -6.32812
RightFoot  -9.26696 -0.177905 6.30994
RightToes  0.000481921 0.542163 -0.142578
Spine  23.1041 -0.373449 5.96747
Spine1  3.68705 2.44325 -7.06035
HEad  2.59349 -4.55444 2.91311
LeftShoulder1  7.24489 -14.7778 -33.5789
LeftArm  -1.91466 -27.19 -50.299
LeftForeArm  -157.323 -57.709 -166.831
LeftHand  -0.25398 0.0180481 5.50724
RightShoulder  3.5912 9.1265 22.1727
RightArm  -14.641 39.5819 43.9433
RightForeArm  174.974 67.1729 157.366
RightHand  -0.285182 -0.0852938 -6.23593
LeftUpLeg  -11.105 18.0401 4.29516
LeftLeg  23.7183 4.08547 2.29425
LeftFoot  -2.91909 0.404686 -5.24518
LeftToes  1.06245e-005 4.65869e-005 -8.65517e-006
1476
root  10.666 38.8445 12.8559 158.875 79.1272 165.495
RightUpLeg  -7.45937 -18.9461 -14.0652
RightLeg  31.8971 -8.1958 -5.70958
RightFoot  -10.0024 -0.134529 5.69842
RightToes  0.000481921 0.542163 -0.142578
Spine  23.3897 -0.662548 5.88095
Spine1  5.04627 2.07624 -6.25122
HEad  1.28044 -3.46943 3.33081
LeftShoulder1  7.37288 -14.9482 -33.9027
LeftArm  -2.48068 -28.2728 -50.7906
LeftForeArm  -156.672 -56.9287 -167.269
LeftHand  -0.25398 0.0180481 5.50724
RightShoulder  3.80037 9.66537 22.611
RightArm  -12.5548 38.3428 46.2025
RightForeArm  178.012 64.2598 160.414
RightHand  -0.314916 0.0994094 -6.68955
LeftUpLeg  -10.9074 19.0886 5.5763
LeftLeg  26.8856 4.55119 2.84049
LeftFoot  -4.54624 0.313742 -4.82554
LeftToes  1.06245e-005 4.65869e-005 -8.65517e-006
1477
root  10.7368 38.8082 12.7794 154.942 81.4597 162.281
RightUpLeg  -7.20664 -18.8211 -14.1374
RightLeg  31.819 -6.35854 -4.4916
RightFoot  -10.0118 -0.127259 5.11934
RightToes  0.000481921 0.542163 -0.142578
Spine  23.1933 -0.631316 5.35834
Spine1  6.00405 1.87531 -5.47026
HEad  1.11126 -2.71307 3.76812
LeftShoulder1  7.49888 -14.7472 -35.0207
LeftArm  -2.29847 -27.3891 -50.6491
LeftForeArm  -154.94 -55.5299 -168.047
LeftHand  -0.25398 0.0180481 5.50724
RightShoulder  4.34211 10.3686 25.1744
RightArm  -9.24208 34.2412 47.736
RightForeArm  -177.18 60.4525 163.665
RightHand  -0.304711 0.632594 -5.9539
LeftUpLeg  -9.67512 21.0099 6.54053
LeftLeg  27.5036 4.73511 3.01313
LeftFoot  -5.17218 0.275701 -4.54578
LeftToes  1.06245e-005 4.65869e-005 -8.65517e-006
1478
root  10.9282 39.0188 12.7271 147.7 83.6979 154.706
RightUpLeg  -6.95393 -18.2763 -13.9135
RightLeg  29.7384 -5.10496 -3.38738
RightFoot  -9.13517 -0.155502 4.84519
RightToes  0.000481921 0.542163 -0.142578
Spine  22.0216 -0.357323 4.40379
Spine1  6.36068 1.62766 -4.2853
HEad  1.74363 -1.78609 3.33848
LeftShoulder1  7.60237 -14.2884 -36.6251
LeftArm  -1.79382 -24.0515 -49.6387
LeftForeArm  -153.495 -53.3189 -169.101
LeftHand  -0.25398 0.0180481 5.50724
RightShoulder  5.00924 10.6675 29.3857
RightArm  -5.68598 27.4004 48.9118
RightForeArm  -170.512 56.4978 166.471
RightHand  -0.182393 0.94551 -3.44834
LeftUpLeg  -8.04103 23.2138 7.06398
LeftLeg  25.5246 4.9802 2.92532
LeftFoot  -4.75019 0.3062 -4.81437
LeftToes  1.06245e-005 4.65869e-005 -8.65517e-006
1479
root  11.1923 39.3764 12.7086 137.117 85.6301 142.922
RightUpLeg  -6.80216 -17.0085 -13.0309
RightLeg  26.2243 -4.86163 -2.82472
RightFoot  -7.5638 -0.20374 4.62252
RightToes  0.000481921 0.542163 -0.142578
Spine  19.7613 -0.0870949 3.24045
Spine1  6.85067 1.11434 -2.3086
HEad  2.21188 -0.296334 1.61947
LeftShoulder1  7.58939 -13.7256 -37.9019
LeftArm  -1.67825 -19.2797 -47.8464
LeftForeArm  -153.469 -50.5308 -170.189
LeftHand  -0.25398 0.0180481 5.50724
RightShoulder  5.38388 10.2555 33.1925
RightArm  -2.89988 19.2157 50.0954
RightForeArm  -165.507 53.0151 168.453
RightHand  -0.0546675 1.40502 -1.10092
LeftUpLeg  -6.53739 25.2148 7.31237
LeftLeg  21.8635 5.3404 2.74789
LeftFoot  -3.53908 0.39058 -5.41006
LeftToes  1.06245e-005 4.65869e-005 -8.65517e-006
